<?xml version="1.0" encoding="UTF-8"?><svg id="Layer_1" xmlns="http://www.w3.org/2000/svg" viewBox="0 0 255.12 335.56"><defs><style>.cls-1{fill:#fff;stroke-width:0px;}</style></defs><path class="cls-1" d="m25.71,265.18c20.69-7.22,36.23-25.44,39.6-47.65.45-2.97.69-6.01.69-9.11v-26.89h26.63c7.28,0,14.26-1.29,20.72-3.67,22.98-8.44,39.38-30.53,39.38-56.44,0-38.88-31.52-70.39-70.39-70.39h71.5c41.74,0,75.57,33.83,75.57,75.57,0,27.82-17.6,51.53-42.28,60.59-6.94,2.55-14.43,3.94-22.25,3.94h-28.58v28.87c0,3.33-.25,6.59-.74,9.78-4.52,29.72-29.3,52.77-59.81,54.63-1.31.08-2.64.12-3.98.12-2.04,0-4.05-.1-6.04-.28-10.27-.95-19.84-4.31-28.15-9.51-4.15-2.6-7.99-5.66-11.44-9.11-.15-.15-.29-.29-.44-.44"/></svg>